<svg width="151.69" height="25.34" viewBox="0 0 151.69 25.34" xmlns="http://www.w3.org/2000/svg"><g id="svgGroup" stroke-linecap="round" fill-rule="evenodd" font-size="9pt" stroke="#000" stroke-width="0.75mm" fill="#000" style="stroke:#000;stroke-width:0.75mm;fill:#000"><path d="M 33.425 24.92 L 18.725 24.92 L 18.725 0.42 L 33.425 0.42 L 33.425 3.29 L 22.05 3.29 L 22.05 10.745 L 31.85 10.745 L 31.85 13.545 L 22.05 13.545 L 22.05 22.05 L 33.425 22.05 L 33.425 24.92 Z M 110.32 15.61 L 110.32 0.42 L 113.645 0.42 L 113.645 15.085 A 13.819 13.819 0 0 0 113.785 17.119 Q 114.093 19.187 115.08 20.51 A 4.635 4.635 0 0 0 118.04 22.315 A 7.146 7.146 0 0 0 119.385 22.435 A 7.485 7.485 0 0 0 121.136 22.243 A 4.709 4.709 0 0 0 123.83 20.563 A 6.084 6.084 0 0 0 124.809 18.674 Q 125.3 17.169 125.3 15.085 L 125.3 0.42 L 128.52 0.42 L 128.52 15.47 Q 128.52 18.55 127.383 20.773 A 8.257 8.257 0 0 1 125.416 23.309 A 7.85 7.85 0 0 1 124.198 24.168 A 8.758 8.758 0 0 1 121.201 25.202 A 11.485 11.485 0 0 1 119.385 25.34 Q 115.15 25.34 112.735 22.82 A 8.162 8.162 0 0 1 110.824 19.444 Q 110.446 18.176 110.352 16.653 A 16.834 16.834 0 0 1 110.32 15.61 Z M 88.865 22.855 L 90.545 20.055 Q 91.805 21.105 93.38 21.77 A 8.172 8.172 0 0 0 95.26 22.299 A 11.241 11.241 0 0 0 97.055 22.435 A 9.793 9.793 0 0 0 98.647 22.314 Q 99.494 22.174 100.181 21.873 A 4.795 4.795 0 0 0 101.045 21.385 A 3.598 3.598 0 0 0 102.024 20.368 Q 102.515 19.582 102.515 18.55 A 4.179 4.179 0 0 0 102.397 17.538 A 3.436 3.436 0 0 0 102.095 16.748 Q 101.675 15.96 100.468 15.208 Q 99.377 14.528 97.358 13.748 A 41.502 41.502 0 0 0 96.915 13.58 A 31.644 31.644 0 0 1 95.302 12.904 Q 94.512 12.545 93.856 12.184 A 13.823 13.823 0 0 1 92.89 11.603 Q 91.497 10.679 90.838 9.516 A 4.656 4.656 0 0 1 90.737 9.328 A 5.833 5.833 0 0 1 90.205 7.693 A 8.025 8.025 0 0 1 90.09 6.3 Q 90.09 4.55 91.053 3.133 A 6.012 6.012 0 0 1 92.611 1.579 A 8.185 8.185 0 0 1 93.888 0.858 A 8.945 8.945 0 0 1 95.952 0.215 Q 96.875 0.04 97.927 0.008 A 15.83 15.83 0 0 1 98.42 0 Q 100.59 0 102.323 0.438 Q 104.055 0.875 105.7 1.68 L 104.475 4.515 A 11.023 11.023 0 0 0 103.031 3.809 A 14.59 14.59 0 0 0 101.692 3.343 Q 100.1 2.87 98.35 2.87 A 9.515 9.515 0 0 0 96.94 2.968 Q 96.193 3.08 95.585 3.32 A 4.416 4.416 0 0 0 94.71 3.78 A 3.466 3.466 0 0 0 93.953 4.468 A 2.576 2.576 0 0 0 93.38 6.125 A 3.663 3.663 0 0 0 93.482 7.008 A 2.997 2.997 0 0 0 93.765 7.735 Q 94.15 8.435 95.288 9.1 A 11.551 11.551 0 0 0 96.063 9.51 Q 96.857 9.896 97.981 10.333 A 45.504 45.504 0 0 0 98.7 10.605 A 28.43 28.43 0 0 1 100.442 11.315 Q 101.294 11.698 101.995 12.094 A 12.426 12.426 0 0 1 103.023 12.74 A 9.115 9.115 0 0 1 104.086 13.607 Q 104.64 14.137 105.009 14.705 A 4.98 4.98 0 0 1 105.28 15.173 A 6.153 6.153 0 0 1 105.889 17.225 A 7.754 7.754 0 0 1 105.945 18.165 A 7.599 7.599 0 0 1 105.711 20.09 A 5.987 5.987 0 0 1 104.808 22.05 A 6.866 6.866 0 0 1 102.381 24.158 A 8.525 8.525 0 0 1 101.658 24.5 Q 99.645 25.34 97.055 25.34 Q 94.5 25.34 92.4 24.658 A 13.372 13.372 0 0 1 90.522 23.894 A 9.951 9.951 0 0 1 88.865 22.855 Z M 55.545 23.87 L 52.43 25.34 L 49.385 18.69 A 10.705 10.705 0 0 0 48.478 17.089 Q 47.889 16.242 47.189 15.66 A 5.674 5.674 0 0 0 46.48 15.155 Q 44.956 14.24 42.688 14.123 A 13.247 13.247 0 0 0 42 14.105 L 41.475 14.105 L 41.475 24.92 L 38.15 24.92 L 38.15 0.49 A 86.765 86.765 0 0 1 40.844 0.277 A 75.522 75.522 0 0 1 41.702 0.228 A 65.779 65.779 0 0 1 43.913 0.152 A 79.193 79.193 0 0 1 45.325 0.14 A 17.641 17.641 0 0 1 47.789 0.3 Q 50.475 0.68 52.063 1.96 A 6.095 6.095 0 0 1 53.683 3.897 Q 54.318 5.121 54.32 6.638 A 7.382 7.382 0 0 1 54.32 6.65 A 6.958 6.958 0 0 1 54.092 8.477 A 5.135 5.135 0 0 1 52.798 10.763 A 7.358 7.358 0 0 1 51.074 12.05 Q 50.287 12.484 49.321 12.813 A 14.516 14.516 0 0 1 48.405 13.09 A 8.28 8.28 0 0 1 49.605 13.742 A 7.15 7.15 0 0 1 50.085 14.088 A 6.15 6.15 0 0 1 50.806 14.761 Q 51.117 15.098 51.417 15.509 A 10.252 10.252 0 0 1 51.503 15.628 A 10.889 10.889 0 0 1 52.017 16.431 Q 52.279 16.88 52.544 17.413 A 22.814 22.814 0 0 1 52.885 18.13 L 55.545 23.87 Z M 77.14 23.87 L 74.025 25.34 L 70.98 18.69 A 10.705 10.705 0 0 0 70.073 17.089 Q 69.484 16.242 68.784 15.66 A 5.674 5.674 0 0 0 68.075 15.155 Q 66.551 14.24 64.283 14.123 A 13.247 13.247 0 0 0 63.595 14.105 L 63.07 14.105 L 63.07 24.92 L 59.745 24.92 L 59.745 0.49 A 86.765 86.765 0 0 1 62.439 0.277 A 75.522 75.522 0 0 1 63.297 0.228 A 65.779 65.779 0 0 1 65.508 0.152 A 79.193 79.193 0 0 1 66.92 0.14 A 17.641 17.641 0 0 1 69.384 0.3 Q 72.07 0.68 73.658 1.96 A 6.095 6.095 0 0 1 75.278 3.897 Q 75.913 5.121 75.915 6.638 A 7.382 7.382 0 0 1 75.915 6.65 A 6.958 6.958 0 0 1 75.687 8.477 A 5.135 5.135 0 0 1 74.393 10.763 A 7.358 7.358 0 0 1 72.669 12.05 Q 71.882 12.484 70.916 12.813 A 14.516 14.516 0 0 1 70 13.09 A 8.28 8.28 0 0 1 71.2 13.742 A 7.15 7.15 0 0 1 71.68 14.088 A 6.15 6.15 0 0 1 72.401 14.761 Q 72.712 15.098 73.012 15.509 A 10.252 10.252 0 0 1 73.098 15.628 A 10.889 10.889 0 0 1 73.612 16.431 Q 73.874 16.88 74.139 17.413 A 22.814 22.814 0 0 1 74.48 18.13 L 77.14 23.87 Z M 151.69 23.87 L 148.575 25.34 L 145.53 18.69 A 10.705 10.705 0 0 0 144.623 17.089 Q 144.034 16.242 143.334 15.66 A 5.674 5.674 0 0 0 142.625 15.155 Q 141.101 14.24 138.833 14.123 A 13.247 13.247 0 0 0 138.145 14.105 L 137.62 14.105 L 137.62 24.92 L 134.295 24.92 L 134.295 0.49 A 86.765 86.765 0 0 1 136.989 0.277 A 75.522 75.522 0 0 1 137.847 0.228 A 65.779 65.779 0 0 1 140.058 0.152 A 79.193 79.193 0 0 1 141.47 0.14 A 17.641 17.641 0 0 1 143.934 0.3 Q 146.62 0.68 148.208 1.96 A 6.095 6.095 0 0 1 149.828 3.897 Q 150.463 5.121 150.465 6.638 A 7.382 7.382 0 0 1 150.465 6.65 A 6.958 6.958 0 0 1 150.237 8.477 A 5.135 5.135 0 0 1 148.943 10.763 A 7.358 7.358 0 0 1 147.219 12.05 Q 146.432 12.484 145.466 12.813 A 14.516 14.516 0 0 1 144.55 13.09 A 8.28 8.28 0 0 1 145.75 13.742 A 7.15 7.15 0 0 1 146.23 14.088 A 6.15 6.15 0 0 1 146.951 14.761 Q 147.262 15.098 147.562 15.509 A 10.252 10.252 0 0 1 147.648 15.628 A 10.889 10.889 0 0 1 148.162 16.431 Q 148.424 16.88 148.689 17.413 A 22.814 22.814 0 0 1 149.03 18.13 L 151.69 23.87 Z M 3.325 24.92 L 0 24.92 L 0 0.42 L 14.525 0.42 L 14.525 3.29 L 3.325 3.29 L 3.325 10.78 L 12.67 10.78 L 12.67 13.51 L 3.325 13.51 L 3.325 24.92 Z M 84.665 24.92 L 81.34 24.92 L 81.34 0.42 L 84.665 0.42 L 84.665 24.92 Z M 41.475 3.08 L 41.475 11.305 L 45.325 11.305 A 9.271 9.271 0 0 0 47.048 11.154 Q 48.058 10.963 48.864 10.53 A 5.232 5.232 0 0 0 49.42 10.185 A 3.601 3.601 0 0 0 50.962 7.552 A 5.079 5.079 0 0 0 50.995 6.965 A 3.434 3.434 0 0 0 49.849 4.353 A 4.645 4.645 0 0 0 49.525 4.078 A 4.873 4.873 0 0 0 47.998 3.3 Q 47.323 3.086 46.507 2.999 A 11.181 11.181 0 0 0 45.325 2.94 A 69.724 69.724 0 0 0 44.263 2.948 Q 43.763 2.955 43.317 2.971 A 41.645 41.645 0 0 0 43.19 2.975 A 37.462 37.462 0 0 0 42.289 3.019 A 27.71 27.71 0 0 0 41.475 3.08 Z M 63.07 3.08 L 63.07 11.305 L 66.92 11.305 A 9.271 9.271 0 0 0 68.643 11.154 Q 69.653 10.963 70.459 10.53 A 5.232 5.232 0 0 0 71.015 10.185 A 3.601 3.601 0 0 0 72.557 7.552 A 5.079 5.079 0 0 0 72.59 6.965 A 3.434 3.434 0 0 0 71.444 4.353 A 4.645 4.645 0 0 0 71.12 4.078 A 4.873 4.873 0 0 0 69.593 3.3 Q 68.918 3.086 68.102 2.999 A 11.181 11.181 0 0 0 66.92 2.94 A 69.724 69.724 0 0 0 65.858 2.948 Q 65.358 2.955 64.912 2.971 A 41.645 41.645 0 0 0 64.785 2.975 A 37.462 37.462 0 0 0 63.884 3.019 A 27.71 27.71 0 0 0 63.07 3.08 Z M 137.62 3.08 L 137.62 11.305 L 141.47 11.305 A 9.271 9.271 0 0 0 143.193 11.154 Q 144.203 10.963 145.009 10.53 A 5.232 5.232 0 0 0 145.565 10.185 A 3.601 3.601 0 0 0 147.107 7.552 A 5.079 5.079 0 0 0 147.14 6.965 A 3.434 3.434 0 0 0 145.994 4.353 A 4.645 4.645 0 0 0 145.67 4.078 A 4.873 4.873 0 0 0 144.143 3.3 Q 143.468 3.086 142.652 2.999 A 11.181 11.181 0 0 0 141.47 2.94 A 69.724 69.724 0 0 0 140.408 2.948 Q 139.908 2.955 139.462 2.971 A 41.645 41.645 0 0 0 139.335 2.975 A 37.462 37.462 0 0 0 138.434 3.019 A 27.71 27.71 0 0 0 137.62 3.08 Z" vector-effect="non-scaling-stroke"/></g></svg>